# xmcd
#
# Track frame offsets:
# 150
# 9288
# 24155
# 38371
# 46759
# 61822
# 74808
# 93231
# 111260
# 129602
# 147935
# 170678
# 193760
# 201674
# 220906
# 246703
# 269861
# 280136
# 292673
# 302761
#
# Disc length: 4336 seconds
#
# Revision: 0
# Processed by: cddbd v1.5.1PL0 Copyright (c) Steve Scherf et al.
# Submitted via: Axialis_AX_CDPlayer 2.6
#
DISCID=3210ee14
DTITLE=Schobert and Black, Ulrich Roski - Das Beste von Schobert and Black
DYEAR=1900
DGENRE=
TTITLE0=Allegretto Mercantilaso
TTITLE1=Beutelgesang
TTITLE2=Bickensoler
TTITLE3=Bildbeschreibung
TTITLE4=Schurbelspiel
TTITLE5=Dein Auge ist wie ein Klo
TTITLE6=Bart
TTITLE7=Der fast Angepasste
TTITLE8=Greisinnenmörder vom Teufelsmoor
TTITLE9=Des Heizers Traum
TTITLE10=Reifeprüfung
TTITLE11=Wäscheklammer
TTITLE12=Dummes Huhn, was nun?
TTITLE13=Fortuna, Fummel und Sohn
TTITLE14=Freddy the gun
TTITLE15=Holiday auf Sylt
TTITLE16=Immer nur Bargeld
TTITLE17=Kleine Banditenballade
TTITLE18=Liebeslied eines Arztes
TTITLE19=Limerick VI
EXTD=
EXTT0=
EXTT1=
EXTT2=
EXTT3=
EXTT4=
EXTT5=
EXTT6=
EXTT7=
EXTT8=
EXTT9=
EXTT10=
EXTT11=
EXTT12=
EXTT13=
EXTT14=
EXTT15=
EXTT16=
EXTT17=
EXTT18=
EXTT19=
PLAYORDER=
